<mxfile host="app.diagrams.net" modified="2024-04-10T00:50:50.306Z" agent="Mozilla/5.0 (Windows NT 10.0; Win64; x64) AppleWebKit/537.36 (KHTML, like Gecko) Chrome/114.0.5735.289 Safari/537.36" etag="PtgG0OgeB3yAPNanG5Ln" version="24.2.3" type="device">
  <diagram id="C5RBs43oDa-KdzZeNtuy" name="Page-1">
    <mxGraphModel dx="1427" dy="717" grid="1" gridSize="10" guides="1" tooltips="1" connect="1" arrows="1" fold="1" page="1" pageScale="1" pageWidth="827" pageHeight="1169" math="0" shadow="0">
      <root>
        <mxCell id="WIyWlLk6GJQsqaUBKTNV-0" />
        <mxCell id="WIyWlLk6GJQsqaUBKTNV-1" parent="WIyWlLk6GJQsqaUBKTNV-0" />
        <mxCell id="SoGKsS82A-lXgqtsg-29-8" value="节点" style="swimlane;whiteSpace=wrap;html=1;" vertex="1" parent="WIyWlLk6GJQsqaUBKTNV-1">
          <mxGeometry x="60" y="70" width="460" height="280" as="geometry" />
        </mxCell>
        <mxCell id="SoGKsS82A-lXgqtsg-29-13" value="输出" style="rounded=0;whiteSpace=wrap;html=1;" vertex="1" parent="SoGKsS82A-lXgqtsg-29-8">
          <mxGeometry x="354" y="50" width="100" height="30" as="geometry" />
        </mxCell>
        <mxCell id="SoGKsS82A-lXgqtsg-29-14" value="输出" style="rounded=0;whiteSpace=wrap;html=1;" vertex="1" parent="SoGKsS82A-lXgqtsg-29-8">
          <mxGeometry x="354" y="100" width="100" height="30" as="geometry" />
        </mxCell>
        <mxCell id="SoGKsS82A-lXgqtsg-29-15" value="输入" style="rounded=0;whiteSpace=wrap;html=1;" vertex="1" parent="SoGKsS82A-lXgqtsg-29-8">
          <mxGeometry x="10" y="100" width="100" height="30" as="geometry" />
        </mxCell>
        <mxCell id="SoGKsS82A-lXgqtsg-29-16" value="输入" style="rounded=0;whiteSpace=wrap;html=1;" vertex="1" parent="SoGKsS82A-lXgqtsg-29-8">
          <mxGeometry x="10" y="50" width="100" height="30" as="geometry" />
        </mxCell>
        <mxCell id="SoGKsS82A-lXgqtsg-29-11" value="" style="endArrow=none;html=1;rounded=0;entryX=0.25;entryY=0;entryDx=0;entryDy=0;exitX=0.25;exitY=1;exitDx=0;exitDy=0;" edge="1" parent="WIyWlLk6GJQsqaUBKTNV-1" source="SoGKsS82A-lXgqtsg-29-8" target="SoGKsS82A-lXgqtsg-29-8">
          <mxGeometry width="50" height="50" relative="1" as="geometry">
            <mxPoint x="100" y="390" as="sourcePoint" />
            <mxPoint x="150" y="340" as="targetPoint" />
          </mxGeometry>
        </mxCell>
        <mxCell id="SoGKsS82A-lXgqtsg-29-12" value="" style="endArrow=none;html=1;rounded=0;entryX=0.75;entryY=0;entryDx=0;entryDy=0;exitX=0.75;exitY=1;exitDx=0;exitDy=0;" edge="1" parent="WIyWlLk6GJQsqaUBKTNV-1" source="SoGKsS82A-lXgqtsg-29-8" target="SoGKsS82A-lXgqtsg-29-8">
          <mxGeometry width="50" height="50" relative="1" as="geometry">
            <mxPoint x="173" y="540" as="sourcePoint" />
            <mxPoint x="173" y="260" as="targetPoint" />
          </mxGeometry>
        </mxCell>
      </root>
    </mxGraphModel>
  </diagram>
</mxfile>
